<svg height="128" viewBox="0 0 150 400" xmlns="http://www.w3.org/2000/svg">

  <!-- Flash drive -->
  <g>

    <!-- Flash drive head -->
    <g>

      <rect height="100" width="100" style="fill:silver;" x="25" y="0" />

      <!-- Flash drive head holes -->
      <g>

        <rect height="20" style="fill:#444;" width="20" x="45" y="40" />

        <rect height="20" style="fill:#444;" width="20" x="85" y="40" />

      </g>
      <!-- End Flash drive head holes -->

      <!-- Flash drive head hole shadows -->
      <g>

        <path d="M45,40 L65,40 L65,45 L50,45 L50,60 L45,60" opacity="0.2" />

        <path d="M85,40 L105,40 L105,45 L90,45 L90,60 L85,60" opacity="0.2" />

      </g>
      <!-- End Flash drive head hole shadows -->

    </g>
    <!-- End Flash drive head -->

    <!-- Flash drive cover -->
    <g>

      <rect height="300" rx="10" ry="10" style="fill:#303030" width="150" x="0" y="100" />

      <!-- Backup sign -->
      <g>

        <!-- Arc -->
        <path d="M30,228.205 A50 50 0 1 1 30,271.795" style="fill:none; stroke:silver;" />
        <!-- End Arc -->

        <!-- Arrowhead -->
        <polygon points="23.57,225.55 36.44,231.41 24.92,239.62" style="fill: silver;" />
        <!-- End Arrowhead -->

        <!-- Code symbol -->
        <!-- <text dominant-baseline="middle" font-size="32" style="fill: silver;" text-anchor="middle" x="75"
          y="250">&lt;/&gt;</text> -->
        <!-- End Code symbol -->

        <!-- Git icon -->
        <g transform="translate(51,227.25) scale(0.5)">

          <path fill="#F05133"
            d="M92.71 44.408 52.591 4.291c-2.31-2.311-6.057-2.311-8.369 0l-8.33 8.332L46.459 23.19c2.456-.83 5.272-.273 7.229 1.685 1.969 1.97 2.521 4.81 1.67 7.275l10.186 10.185c2.465-.85 5.307-.3 7.275 1.671 2.75 2.75 2.75 7.206 0 9.958-2.752 2.751-7.208 2.751-9.961 0-2.068-2.07-2.58-5.11-1.531-7.658l-9.5-9.499v24.997c.67.332 1.303.774 1.861 1.332 2.75 2.75 2.75 7.206 0 9.959-2.75 2.749-7.209 2.749-9.957 0-2.75-2.754-2.75-7.21 0-9.959.68-.679 1.467-1.193 2.307-1.537v-25.23c-.84-.344-1.625-.853-2.307-1.537-2.083-2.082-2.584-5.14-1.516-7.698L31.798 16.715 4.288 44.222c-2.311 2.313-2.311 6.06 0 8.371l40.121 40.118c2.31 2.311 6.056 2.311 8.369 0L92.71 52.779c2.311-2.311 2.311-6.06 0-8.371z" />

        </g>
        <!-- End Git icon -->

      </g>
      <!-- End Backup sign -->

    </g>
    <!-- End Flash drive cover -->

    <!-- Flash drive cover shadow -->
    <path d="M0,395 L140,395 A10 10 0 0 0 145,390 L145,100 A10 10 0 0 1 150,110 L150,395 A10 10 0 0 1 145,400 L5,400Z"
      opacity="0.1" />
    <!-- Flash drive cover shadow -->

  </g>
  <!-- End Flash drive -->

  <!-- Flash drive shadow -->
  <path d="M75,0 L125,0 L125,100 L140,100 A10 10 0 0 1 150,110 L150,390 A10 10 0 0 1 140,400 L75,400 Z" opacity="0.1" />
  <!-- End Flash drive shadow -->

</svg>